<?xml version="1.0" standalone="no"?>
<!DOCTYPE svg PUBLIC "-//W3C//DTD SVG 20010904//EN"
 "http://www.w3.org/TR/2001/REC-SVG-20010904/DTD/svg10.dtd">
<svg version="1.0" xmlns="http://www.w3.org/2000/svg"
 width="299.000000pt" height="168.000000pt" viewBox="0 0 299.000000 168.000000"
 preserveAspectRatio="xMidYMid meet">

<g transform="translate(0.000000,168.000000) scale(0.100000,-0.100000)"
fill="#000000" stroke="none">
<path d="M0 840 l0 -840 1495 0 1495 0 0 840 0 840 -1495 0 -1495 0 0 -840z
m2045 390 c18 -20 18 -20 -13 -4 -34 17 -40 24 -19 24 8 0 22 -9 32 -20z m358
-107 c-7 -2 -19 -2 -25 0 -7 3 -2 5 12 5 14 0 19 -2 13 -5z m-578 -26 l40 1
-39 -8 c-43 -8 -79 -3 -70 11 3 5 10 6 17 2 6 -4 29 -6 52 -6z m315 -17 c0 -5
-7 -10 -16 -10 -8 0 -12 5 -9 10 3 6 10 10 16 10 5 0 9 -4 9 -10z m-291 -21
c-10 -6 -7 -9 11 -10 45 -1 -9 -18 -62 -18 -63 -1 -74 19 -11 21 l48 1 -50 7
c-47 6 -48 6 -15 11 49 6 96 -1 79 -12z m-92 -55 c-3 -3 -12 -4 -19 -1 -8 3
-5 6 6 6 11 1 17 -2 13 -5z m93 -2 c0 -4 -18 -6 -40 -4 -22 2 -40 6 -40 8 0 2
18 4 40 4 22 0 40 -3 40 -8z m490 -22 c0 -5 -2 -10 -4 -10 -3 0 -8 5 -11 10
-3 6 -1 10 4 10 6 0 11 -4 11 -10z m-575 -9 c3 -5 1 -13 -5 -16 -15 -9 -43 3
-35 15 8 13 32 13 40 1z m-195 -11 c0 -5 -4 -10 -10 -10 -5 0 -10 5 -10 10 0
6 5 10 10 10 6 0 10 -4 10 -10z m700 -20 c0 -5 -2 -10 -4 -10 -3 0 -8 5 -11
10 -3 6 -1 10 4 10 6 0 11 -4 11 -10z m-280 -50 c9 -16 19 -20 47 -18 40 3 50
-9 30 -37 -14 -18 -15 -18 -45 3 -20 15 -47 22 -79 23 l-48 2 40 6 c36 6 38 7
15 14 -21 6 -22 9 -10 17 23 15 38 12 50 -10z m-117 -27 c-7 -2 -19 -2 -25 0
-7 3 -2 5 12 5 14 0 19 -2 13 -5z m-548 -13 c-3 -5 -10 -10 -16 -10 -5 0 -9 5
-9 10 0 6 7 10 16 10 8 0 12 -4 9 -10z m125 0 c0 -5 -2 -10 -4 -10 -3 0 -8 5
-11 10 -3 6 -1 10 4 10 6 0 11 -4 11 -10z m393 -13 c4 -10 -2 -13 -21 -9 -24
5 -25 6 -7 13 11 4 21 8 21 8 1 1 4 -5 7 -12z m-1581 -24 c-6 -3 -9 -10 -6
-15 4 -7 2 -8 -5 -4 -9 6 -9 11 0 22 6 8 15 12 18 8 3 -4 0 -9 -7 -11z m174
-20 c-10 -11 -19 -7 -22 10 -2 15 0 16 12 6 8 -6 12 -14 10 -16z m1476 -14
c20 -16 44 -29 53 -29 9 0 13 -4 10 -10 -3 -5 -3 -10 2 -10 4 0 24 -14 43 -32
l35 -30 -35 24 c-71 49 -90 59 -90 47 0 -6 17 -27 38 -47 31 -30 32 -32 7 -15
-45 30 -63 34 -69 16 -4 -11 -2 -14 9 -9 8 3 15 0 15 -7 0 -8 -19 -11 -67 -9
l-68 3 30 -26 30 -26 -42 26 c-45 26 -63 31 -63 16 0 -5 -9 -7 -20 -4 -11 3
-20 9 -20 13 0 5 -6 15 -14 23 -12 12 -8 16 30 32 38 15 42 20 31 33 -9 13 -9
14 1 8 15 -9 16 6 0 22 -21 21 11 14 34 -8 12 -10 25 -17 31 -13 5 3 -1 14
-14 24 l-24 19 45 -1 c33 -1 55 -9 82 -30z m-1609 8 c3 -8 -3 -14 -16 -14 -11
-1 -24 -8 -28 -15 -6 -8 -9 -9 -9 -2 0 9 31 38 46 43 1 1 4 -5 7 -12z m86 -11
c9 -11 9 -16 -1 -22 -7 -4 -10 -4 -6 1 4 4 3 14 -3 22 -6 7 -9 13 -6 13 2 0
10 -6 16 -14z m-32 -3 c-4 -3 -2 -12 3 -18 7 -9 5 -17 -7 -26 -16 -13 -17 -12
-5 3 8 10 9 19 3 22 -5 4 -14 -2 -20 -11 -6 -10 -11 -14 -11 -9 0 10 30 46 38
46 3 0 2 -3 -1 -7z m205 -20 c-6 -2 -9 -10 -6 -15 4 -7 2 -8 -5 -4 -13 9 -5
26 12 25 9 0 8 -2 -1 -6z m1781 -8 c1 -5 -6 -11 -15 -13 -11 -2 -18 3 -18 13
0 17 30 18 33 0z m-295 -2 c-10 -2 -26 -2 -35 0 -10 3 -2 5 17 5 19 0 27 -2
18 -5z m185 0 c-7 -2 -21 -2 -30 0 -10 3 -4 5 12 5 17 0 24 -2 18 -5z m-1925
-15 c-2 -7 3 -12 10 -10 17 3 15 -3 -5 -19 -10 -8 -14 -9 -10 -2 11 17 -11 27
-29 13 -12 -10 -12 -16 -2 -29 12 -14 11 -14 -4 -3 -18 14 -43 7 -32 -9 3 -5
10 -6 16 -3 7 4 8 2 4 -5 -5 -8 -12 -9 -20 -2 -16 13 -34 0 -30 -21 3 -22 0
-22 -15 -4 -9 11 1 23 51 60 68 51 69 51 66 34z m169 -43 c0 -8 -4 -12 -9 -9
-5 3 -6 10 -3 15 9 13 12 11 12 -6z m-97 1 c0 -2 -8 -10 -17 -17 -16 -13 -17
-12 -4 4 13 16 21 21 21 13z m76 -34 c-2 -12 -11 -16 -30 -15 -24 2 -26 0 -15
-13 10 -12 9 -13 -5 -8 -22 8 -15 29 10 29 10 0 20 6 20 13 2 21 4 23 13 18 5
-4 8 -14 7 -24z m1628 -44 c-3 -5 -12 -4 -20 3 -19 16 -18 18 6 12 11 -3 17
-9 14 -15z m-1710 4 c3 -5 -1 -9 -9 -9 -8 0 -12 4 -9 9 3 4 7 8 9 8 2 0 6 -4
9 -8z m1351 -42 c-3 -5 -12 -10 -20 -10 -8 0 -17 5 -20 10 -4 6 5 10 20 10 15
0 24 -4 20 -10z m535 -10 c0 -5 -4 -10 -10 -10 -5 0 -10 5 -10 10 0 6 5 10 10
10 6 0 10 -4 10 -10z m-432 -37 c2 -8 -6 -13 -22 -13 -17 0 -26 5 -26 16 0 19
41 16 48 -3z m-228 -13 c0 -5 -7 -10 -15 -10 -8 0 -15 5 -15 10 0 6 7 10 15
10 8 0 15 -4 15 -10z m76 -62 l19 -23 -25 20 c-14 11 -27 21 -29 22 -2 2 0 3
6 3 5 0 18 -10 29 -22z"/>
<path d="M1890 760 c13 -11 26 -18 28 -15 6 6 -28 34 -42 35 -5 0 1 -9 14 -20z"/>
<path d="M1765 732 c-13 -13 -4 -34 11 -28 14 5 15 4 4 -9 -11 -13 -6 -15 41
-15 30 0 49 4 43 8 -6 4 -16 17 -22 29 -9 15 -21 21 -42 21 -16 -1 -32 -3 -35
-6z m68 -23 c4 -16 3 -18 -9 -8 -7 6 -11 15 -8 20 8 13 11 11 17 -12z"/>
</g>
</svg>
